<svg xmlns="http://www.w3.org/2000/svg" viewBox="0 0 326.5 98.44"><g data-name="Layer 2"><path d="M91 44.46c-12.51.14-20.73.12-33.24.06-1 0-4.56.26-3.94-.73s1.51-1.88 2.08-2.73c4-5.92 8.12-11.8 12.13-17.74.57-.85 2.46-2.83-.14-2.87-3.22 0-4.3-.22-7.3-.09s-5 4.85-7 7.83c-2.83 4.15-5.38 8.52-8.52 12.44-2.68 3.33-7.43 7.28-4.8 12.09 1.9 3.49 4.87 6.1 7.39 9.1a78.31 78.31 0 0 1 7.76 11.05c.93 1.6 1.9 3.33 3.55 4.11a8.35 8.35 0 0 0 3.72.51h2.47c2 0 4.55-.13 3.39-1.81L53.91 54a.38.38 0 0 1 .31-.6l29.61-.06a3 3 0 0 1 1.07.17c1.41.53 1.29 1.6 1.12 2.55-3.34 18.68-19.25 32.94-37.7 33.3-17.6.38-36-13-39.14-33.1-1.83-12 .65-22.95 8.09-32.49 12.92-16.57 36.31-20.31 53.61-7 6.17 5.62 8.48 8.28 9.28 9.33a1.67 1.67 0 0 0 1.19.65l4.36.36a1.07 1.07 0 0 0 1.16-1.2l-.51-4.59a2 2 0 0 0-.4-1 75 75 0 0 0-9.19-10.1A45.87 45.87 0 0 0 47.3 0C27.42.09 9.27 13.25 2.69 32.49-4 52.21 2.18 74.94 18.13 87.5c15.71 12.36 33 14.38 50.59 5.37S94.9 68.7 95.13 48.39c0-3.44-1.2-4-4.09-3.93m25.05-10.99h7.34v11.46h-1.9l-.53-2.81a5.5 5.5 0 0 1-5.3 3 6.67 6.67 0 0 1-5.77-3q-2.1-3-2.1-8.2 0-5.61 2.14-8.62a7.19 7.19 0 0 1 6.22-3 6.69 6.69 0 0 1 4.81 1.62 9.15 9.15 0 0 1 2.33 5.08l-3.31.83a8.58 8.58 0 0 0-1.38-3.56 3 3 0 0 0-2.41-1q-4.5 0-4.5 8.38t4.55 8.4q3.78 0 3.78-5.71h-4zM133 22.73h6.61q7 0 7 6.31a6 6 0 0 1-3.37 5.75l4.16 10h-3.91l-3.44-9.22h-3.45v9.22H133zm3.64 2.81v7.2h2.81q3.6 0 3.6-3.73c0-2.32-1.2-3.47-3.6-3.47zm23.86-2.81h4.16l5.82 22h-3.69l-1.36-5.52H159l-1.35 5.52h-3.47zm4.18 13.64l-2.46-10.21-2.54 10.22zm24.96 1l3.37.46q-1 7.31-7.1 7.3a6.89 6.89 0 0 1-6-2.92q-2.09-2.93-2.08-8.46t2.08-8.45a6.86 6.86 0 0 1 6-3c4.08 0 6.45 2.51 7.14 7.54l-3.41.49a8.55 8.55 0 0 0-1.2-3.91 3.05 3.05 0 0 0-2.6-1.11q-4.12 0-4.13 8.67 0 8.12 4.27 8.11a2.87 2.87 0 0 0 2.39-1.06 8.29 8.29 0 0 0 1.27-3.69m12.26-14.61h12.63v2.91h-8.99v6.34h7.03v2.91h-7.03v6.9h9.12v2.98H201.9V22.73zm33.14 0h3.64v10.51l6.64-10.51h3.87l-5.68 8.11 6.63 13.93-3.92-.01-4.93-10.89-2.61 3.63v7.27h-3.64V22.73zm22.77 0h3.63v18.96h7.8v3.08h-11.43V22.73zm19.39 0h12.62v2.91h-8.98v6.34h7.04v2.91h-7.04v6.9h9.12v2.98H277.2V22.73zm21.08 0h3.64v22.04h-3.64zm13.65 0h4.29l7.24 15.88V22.73h3.04v22.04h-3.4l-8.13-17.65v17.65h-3.04V22.73zM146.07 68.75l2.76.38c-.58 4-2.51 6-5.81 6a5.61 5.61 0 0 1-4.89-2.39q-1.71-2.38-1.71-6.92a11.89 11.89 0 0 1 1.71-6.91 5.6 5.6 0 0 1 4.87-2.46q5 0 5.84 6.16l-2.79.41a7 7 0 0 0-1-3.21 2.51 2.51 0 0 0-2.13-.9q-3.37 0-3.37 7.09 0 6.65 3.48 6.64a2.35 2.35 0 0 0 2-.87 6.78 6.78 0 0 0 1-3M162 56.45a5.48 5.48 0 0 1 4.81 2.37q1.65 2.38 1.65 7t-1.65 6.94a6.06 6.06 0 0 1-9.63 0q-1.66-2.38-1.66-6.92t1.66-7a5.52 5.52 0 0 1 4.82-2.39m0 2.46a2.68 2.68 0 0 0-2.54 1.67 12.6 12.6 0 0 0-.81 5.21 12.51 12.51 0 0 0 .81 5.18 2.68 2.68 0 0 0 2.54 1.67q3.33 0 3.33-6.85a12.6 12.6 0 0 0-.81-5.21 2.66 2.66 0 0 0-2.52-1.67m14.11-2.14h4.41l3.6 13.04 3.7-13.03 4.24-.01v18.04h-2.81V59.42l-4.27 15.39h-2.19L178.6 59.4v15.41h-2.49V56.77zm24.17 0h4.4l3.6 13.04 3.71-13.03 4.24-.01v18.04h-2.82V59.42l-4.27 15.39h-2.19l-4.19-15.41v15.41h-2.48V56.77zm24.08 0h2.92V68a18.24 18.24 0 0 0 .11 2.36 3 3 0 0 0 .47 1.25 2.28 2.28 0 0 0 1 .81 3.73 3.73 0 0 0 1.52.27c1.26 0 2.06-.37 2.38-1.12a9.64 9.64 0 0 0 .49-3.63V56.77h2.68v11a19 19 0 0 1-.25 3.69 5.52 5.52 0 0 1-1.36 2.41c-.75.85-2.13 1.27-4.15 1.27-2.38 0-3.87-.47-4.46-1.41a7.41 7.41 0 0 1-1.11-2.62 17.59 17.59 0 0 1-.22-3.12zm19.6 0h3.51l5.93 13v-13h2.48v18.04h-2.78l-6.65-14.44v14.44h-2.49V56.77zm20.14 0h2.97V74.8h-2.97zm9.14 0h11v2.54h-4.05v15.5h-2.98v-15.5h-3.97v-2.54zm14.54 0h3.25l3.28 7.48 3.39-7.48h2.84l-5 10.41v7.63h-2.97v-7.63l-4.79-10.41zM111.63 66c.22-2.14 2.41-3.6 3.87-4.82a70.08 70.08 0 0 1 7.28-5.34c1.9-1.22 3.59 1.95 1.7 3.16-1.63 1.06-3.23 2.16-4.77 3.35-.87.68-3.6 2.29-3.93 3.33-.74 2.33 7 6.19 8.63 7.26 1.89 1.27.08 4.32-1.82 3-2.75-1.85-5.59-3.62-8.27-5.57-1.46-1.06-2.91-2.41-2.69-4.41m211.19.13c-.2-2.14-2.37-3.62-3.82-4.86a71.6 71.6 0 0 0-7.23-5.41c-1.88-1.25-3.6 1.91-1.73 3.14 1.62 1.08 3.21 2.19 4.74 3.4.86.69 3.57 2.33 3.89 3.37.71 2.34-7.11 6.12-8.7 7.17-1.91 1.25-.13 4.32 1.78 3.06 2.78-1.82 5.63-3.56 8.33-5.48 1.47-1 2.93-2.38 2.74-4.39" fill="#fff" data-name="Layer 1"/></g></svg>