<svg xmlns="http://www.w3.org/2000/svg" viewBox="0 0 29.75 29.75"><g data-name="Layer 2"><path d="M14.88 0A14.87 14.87 0 0 0 1.22 20.77c0-.16.52-.44.62-.52a33.56 33.56 0 0 0 3.21-2.87c1.08-1 2.15-2 3.19-3.11a1.86 1.86 0 0 1 1.49-.63h7.13a1.26 1.26 0 0 1 1.27.84 1.25 1.25 0 0 1-1.23 1.68H11v.49h7.4a.63.63 0 0 0 .41-.17c1.41-1.29 2.8-2.6 4.2-3.9a1.26 1.26 0 0 1 1.76 1.81c-1.77 1.79-3.56 3.61-5.35 5.3a2.47 2.47 0 0 1-1.81.74h-4.22c-1.4 0-2.71 0-4.07-.11a4.32 4.32 0 0 0-3.39 1.08c-1 .92-2.65 2.51-2.76 2.65A14.87 14.87 0 1 0 14.88 0zm3.72 8.45a4.58 4.58 0 0 1-.6 1.36 12.38 12.38 0 0 1-3.23 3.06.34.34 0 0 1-.31 0 13.22 13.22 0 0 1-2.89-2.54 6.68 6.68 0 0 1-.94-1.56 2.08 2.08 0 0 1 .71-2.49 2.18 2.18 0 0 1 2.64.12c.23.18.43.38.64.56a6.13 6.13 0 0 1 .51-.53 2.21 2.21 0 0 1 2.57-.28 2.07 2.07 0 0 1 .9 2.3z" fill="#fff" data-name="Layer 1"/></g></svg>